<?xml version="1.0" encoding="utf-8"?>
<!-- Generator: Adobe Illustrator 24.0.0, SVG Export Plug-In . SVG Version: 6.00 Build 0)  -->
<svg version="1.1" id="Layer_1" xmlns="http://www.w3.org/2000/svg" xmlns:xlink="http://www.w3.org/1999/xlink" x="0px" y="0px"
	 viewBox="0 0 28 27" style="enable-background:new 0 0 28 27;" xml:space="preserve">
<style type="text/css">
	.st0{fill-rule:evenodd;clip-rule:evenodd;fill:#585858;stroke:#585858;}
	.st1{fill:#F1F1F1;}
</style>
<title>Group 2</title>
<desc>Created with Sketch.</desc>
<g id="Skills-Visualisation">
	<g id="Economics_on_hover-Copy" transform="translate(-1830.000000, -292.000000)">
		<g id="Group-2" transform="translate(1829.187500, 292.000000)">
			<ellipse id="Oval" class="st0" cx="14.8" cy="13.5" rx="13.5" ry="13"/>
			<path id="Combined-Shape" class="st1" d="M15,15c1.6,0,2.9,0.2,4,0.7c0.9,0.4,1.6,1,2.1,1.7c0.9,1.2,0.9,2.4,0.9,2.5
				c0,0.6-0.4,1.1-1,1.1l-0.1,0H9.1c-0.6,0-1-0.4-1.1-1l0-0.1c0-0.2,0.1-1.3,0.9-2.4c0.5-0.7,1.2-1.3,2.1-1.7
				C12.1,15.2,13.4,15,15,15z M15,6c2.2,0,4.1,1.9,4.1,4.1s-1.8,4.1-4.1,4.1s-4.1-1.9-4.1-4.1S12.8,6,15,6z"/>
		</g>
	</g>
</g>
</svg>
