<?xml version="1.0" encoding="utf-8"?>
<!-- Generator: Adobe Illustrator 24.0.0, SVG Export Plug-In . SVG Version: 6.00 Build 0)  -->
<svg version="1.1" id="Layer_1" xmlns="http://www.w3.org/2000/svg" xmlns:xlink="http://www.w3.org/1999/xlink" x="0px" y="0px"
	 viewBox="0 0 72 72" style="enable-background:new 0 0 72 72;" xml:space="preserve">
<style type="text/css">
	.st0{fill:#444545;}
	.st1{fill-rule:evenodd;clip-rule:evenodd;fill:#444545;}
</style>
<title>CogX_logo2</title>
<g id="Layer_2_1_">
	<g id="Layer_1-2">
		<g>
			<g>
				<g>
					<path class="st0" d="M23,0c-0.6,0-1,0.4-1,1s0.4,1,1,1c6.6,0,9,2.7,9,5v14.4c-1.8-3.7-4.7-6.5-8.4-9.2
						c-0.4-0.3-1.1-0.2-1.4,0.2s-0.2,1.1,0.2,1.4c4.8,3.5,8,6.9,9.1,12.4c-1.1-0.5-2.4-0.7-3.6-0.8c-4.9,0.2-9.3,2.8-11.8,7
						c-0.3,0.5-0.1,1.1,0.3,1.4s1.1,0.1,1.4-0.3c2.1-3.6,5.9-5.9,10.1-6.1c1.4,0.1,2.8,0.4,4,1.1C32,29.3,32,30.1,32,31v8.7
						C24.2,50.5,17.1,56,11,56c-2.9,0-4.9-0.8-5.9-2.3C3.9,52,3.9,49.4,5,46.3l-1.9-0.7c-1.3,3.7-1.2,7,0.4,9.2S7.4,58,11,58
						c6.5,0,13.3-4.9,21-15v19c0,2.4-0.9,8-9,8c-5.2,0-8.7-4.4-10.6-6.8l-0.7-0.8c-0.4-0.4-1-0.5-1.4-0.1s-0.5,1-0.1,1.4
						c0.2,0.2,0.4,0.5,0.6,0.8C13,67.1,16.8,72,23,72c8.1,0,11-5.2,11-10V7C34,3.8,31.1,0,23,0z"/>
					<path class="st0" d="M9,30c0.2,0,0.3,0,0.5-0.1c5.4-3,8.1-6.2,8.1-9.4c0-2.6-1.4-4.1-2.7-5.4c-1-1.1-1.9-2-1.9-3.4
						c0-2,1-2.8,2.6-4.2c0.7-0.6,1.4-1.2,2.1-1.9c0.4-0.4,0.4-1,0-1.4s-1-0.4-1.4,0C15.7,4.9,15,5.5,14.4,6C12.6,7.4,11,8.8,11,11.7
						c0,2.2,1.3,3.6,2.4,4.8s2.1,2.2,2.1,4s-1.2,4.4-7,7.6C8,28.4,7.9,29,8.1,29.5C8.3,29.8,8.7,30,9,30z"/>
					<path class="st0" d="M12.8,42H13c0.6,0.1,1-0.3,1.1-0.9c0.1-0.6-0.3-1-0.9-1.1C7.6,38.9,2,34.4,2,28c0-3.1,1.8-5.8,3.8-8.4
						c0.3-0.4,0.2-1.1-0.2-1.4c-0.4-0.3-1.1-0.2-1.4,0.2C2.1,21.2,0,24.2,0,28C0,35.5,6.4,40.7,12.8,42z"/>
				</g>
				<path id="Fill-37" class="st1" d="M24,18c-2.2,0-4-1.8-4-4s1.8-4,4-4s4,1.8,4,4S26.2,18,24,18"/>
				<path id="Fill-53" class="st1" d="M16,10c-2.2,0-4-1.8-4-4s1.8-4,4-4s4,1.8,4,4S18.2,10,16,10"/>
				<path id="Fill-57" class="st1" d="M12,44c-2.2,0-4-1.8-4-4s1.8-4,4-4s4,1.8,4,4S14.2,44,12,44"/>
				<path id="Fill-59" class="st1" d="M24,42c-2.2,0-4-1.8-4-4s1.8-4,4-4s4,1.8,4,4S26.2,42,24,42"/>
				<path id="Fill-61" class="st1" d="M6,22c-2.2,0-4-1.8-4-4s1.8-4,4-4s4,1.8,4,4S8.2,22,6,22"/>
				<path id="Fill-63" class="st1" d="M24,66c-2.2,0-4-1.8-4-4c0-2.2,1.8-4,4-4s4,1.8,4,4C28,64.2,26.2,66,24,66"/>
				<path id="Fill-55" class="st1" d="M4,52c-2.2,0-4-1.8-4-4s1.8-4,4-4s4,1.8,4,4S6.2,52,4,52"/>
				<g>
					<path class="st0" d="M49,72c0.6,0,1-0.4,1-1s-0.4-1-1-1c-6.6,0-9-2.7-9-5V50.6c1.8,3.7,4.7,6.5,8.4,9.2
						c0.4,0.3,1.1,0.2,1.4-0.2c0.3-0.4,0.2-1.1-0.2-1.4c-4.8-3.5-8-6.9-9.1-12.4c1.1,0.5,2.4,0.7,3.6,0.8c4.9-0.2,9.3-2.8,11.8-7
						c0.3-0.5,0.1-1.1-0.3-1.4c-0.5-0.3-1.1-0.1-1.4,0.3l0,0c-2.1,3.6-5.9,5.9-10.1,6.1c-1.4-0.1-2.8-0.4-4-1.1
						c0-0.8-0.1-1.6-0.1-2.5v-8.7C47.8,21.5,54.9,16,61,16c2.9,0,4.9,0.8,5.9,2.3c1.2,1.7,1.2,4.3,0.1,7.4l1.9,0.7
						c1.3-3.7,1.2-7-0.4-9.2S64.6,14,61,14c-6.5,0-13.3,4.9-21,15V10c0-2.4,0.9-8,9-8c5.2,0,8.7,4.4,10.5,6.8l0.7,0.9
						c0.4,0.4,1,0.5,1.4,0.1s0.5-1,0.1-1.4c-0.2-0.2-0.4-0.5-0.7-0.8C59,4.9,55.2,0,49,0c-8.1,0-11,5.2-11,10v55
						C38,68.2,40.9,72,49,72z"/>
					<path class="st0" d="M63,42c-0.2,0-0.3,0-0.5,0.1c-5.3,3-8.1,6.2-8.1,9.4c0,2.6,1.4,4.1,2.7,5.4c1.1,1.1,1.9,1.9,1.9,3.4
						c0,2-1,2.8-2.6,4.2c-0.7,0.6-1.4,1.2-2.1,1.9c-0.4,0.4-0.4,1,0,1.4s1,0.4,1.4,0c0.6-0.6,1.3-1.2,1.9-1.7
						c1.7-1.4,3.3-2.8,3.3-5.7c0-2.2-1.3-3.6-2.4-4.8s-2.1-2.2-2.1-4c0-1.7,1.2-4.4,7-7.6c0.5-0.3,0.6-0.9,0.4-1.4
						C63.7,42.2,63.3,42,63,42z"/>
					<path class="st0" d="M59.2,30H59c-0.6-0.1-1,0.3-1.1,0.9s0.3,1,0.9,1.1C64.4,33.1,70,37.6,70,44c0,3.1-1.8,5.8-3.8,8.4
						c-0.3,0.4-0.2,1.1,0.2,1.4s1.1,0.2,1.4-0.2l0,0c2.1-2.8,4.2-5.9,4.2-9.6C72,36.5,65.6,31.3,59.2,30z"/>
				</g>
				<path id="Fill-37-2" class="st1" d="M48,54c2.2,0,4,1.8,4,4s-1.8,4-4,4s-4-1.8-4-4S45.8,54,48,54"/>
				<path id="Fill-53-2" class="st1" d="M56,62c2.2,0,4,1.8,4,4c0,2.2-1.8,4-4,4s-4-1.8-4-4C52,63.8,53.8,62,56,62"/>
				<path id="Fill-57-2" class="st1" d="M60,28c2.2,0,4,1.8,4,4s-1.8,4-4,4s-4-1.8-4-4S57.8,28,60,28"/>
				<path id="Fill-59-2" class="st1" d="M48,30c2.2,0,4,1.8,4,4s-1.8,4-4,4s-4-1.8-4-4S45.8,30,48,30"/>
				<path id="Fill-61-2" class="st1" d="M66,50c2.2,0,4,1.8,4,4s-1.8,4-4,4c-2.2,0-4-1.8-4-4S63.8,50,66,50"/>
				<path id="Fill-63-2" class="st1" d="M48,6c2.2,0,4,1.8,4,4s-1.8,4-4,4s-4-1.8-4-4S45.8,6,48,6"/>
				<path id="Fill-55-2" class="st1" d="M68,20c2.2,0,4,1.8,4,4s-1.8,4-4,4s-4-1.8-4-4S65.8,20,68,20"/>
			</g>
		</g>
	</g>
</g>
</svg>
